<svg width="156" height="22" viewBox="0 0 156 22" fill="none" xmlns="http://www.w3.org/2000/svg">
<path d="M14.8759 15.9352C14.6884 16.7894 14.3446 17.5654 13.8446 18.2633C13.3446 18.9508 12.7404 19.5446 12.0321 20.0446C11.3342 20.5446 10.5738 20.93 9.75085 21.2008C8.92794 21.4717 8.09981 21.6071 7.26648 21.6071C6.11023 21.6071 5.09981 21.3935 4.23523 20.9665C3.38106 20.5394 2.76127 19.9092 2.37585 19.0758L1.92273 21.2477H0.0946045L1.4071 15.0446H3.23523C3.0894 15.7425 3.11023 16.3831 3.29773 16.9665C3.49565 17.5394 3.79773 18.0342 4.20398 18.4508C4.62065 18.8675 5.12585 19.1956 5.7196 19.4352C6.32377 19.6644 6.9696 19.779 7.6571 19.779C8.25085 19.779 8.82377 19.6956 9.37585 19.529C9.92794 19.3519 10.4279 19.1071 10.8759 18.7946C11.3238 18.4717 11.7092 18.081 12.0321 17.6227C12.355 17.1644 12.579 16.6435 12.704 16.0602C12.8602 15.404 12.8394 14.8415 12.6415 14.3727C12.454 13.904 12.1519 13.5029 11.7352 13.1696C11.3186 12.8363 10.829 12.555 10.2665 12.3258C9.7144 12.0863 9.1519 11.8519 8.57898 11.6227C7.89148 11.3623 7.20919 11.0915 6.5321 10.8102C5.86544 10.5185 5.2821 10.154 4.7821 9.71646C4.2821 9.27896 3.91752 8.74771 3.68835 8.12271C3.4696 7.48729 3.45919 6.70084 3.6571 5.76334C3.8446 4.93 4.18315 4.19042 4.67273 3.54459C5.16231 2.88834 5.74044 2.33625 6.4071 1.88834C7.08419 1.44042 7.82377 1.10188 8.62585 0.872711C9.42794 0.633128 10.2352 0.513336 11.0477 0.513336C12.0269 0.513336 12.8915 0.716461 13.6415 1.12271C14.4019 1.52896 14.9331 2.14875 15.2352 2.98209L15.6884 0.857086H17.5634L16.329 6.68521H14.4384C14.5634 6.07063 14.5529 5.49771 14.4071 4.96646C14.2717 4.42479 14.0269 3.96646 13.6727 3.59146C13.329 3.20604 12.8967 2.90396 12.3759 2.68521C11.855 2.45604 11.2821 2.34146 10.6571 2.34146C10.105 2.34146 9.56856 2.40396 9.04773 2.52896C8.5269 2.65396 8.04773 2.85709 7.61023 3.13834C7.17273 3.40917 6.79252 3.76334 6.4696 4.20084C6.14669 4.63834 5.92273 5.15917 5.79773 5.76334C5.69356 6.29459 5.73523 6.74771 5.92273 7.12271C6.11023 7.49771 6.39669 7.83104 6.7821 8.12271C7.16752 8.40396 7.62585 8.66438 8.1571 8.90396C8.69877 9.13313 9.25606 9.3675 9.82898 9.60709C10.5269 9.87792 11.2248 10.18 11.9227 10.5133C12.6206 10.8467 13.2196 11.2477 13.7196 11.7165C14.2196 12.1852 14.5894 12.7633 14.829 13.4508C15.079 14.1279 15.0946 14.956 14.8759 15.9352ZM32.5165 13.9821C32.2561 15.1383 31.9019 16.1852 31.454 17.1227C31.0061 18.0602 30.4384 18.8623 29.7509 19.529C29.0738 20.1852 28.2873 20.6956 27.3915 21.0602C26.4956 21.4248 25.48 21.6071 24.3446 21.6071C23.2196 21.6071 22.2821 21.4248 21.5321 21.0602C20.7925 20.6956 20.2352 20.1852 19.8602 19.529C19.4852 18.8623 19.2665 18.055 19.204 17.1071C19.1415 16.1592 19.2352 15.1071 19.4852 13.9508L22.2665 0.857086H24.4227L21.6259 13.9821C21.5009 14.5967 21.4175 15.2477 21.3759 15.9352C21.3342 16.6227 21.4123 17.2477 21.6102 17.8102C21.8186 18.3727 22.1623 18.8415 22.6415 19.2165C23.1206 19.5915 23.8186 19.779 24.7352 19.779C25.6519 19.779 26.4384 19.5915 27.0946 19.2165C27.7613 18.8415 28.3134 18.3727 28.7509 17.8102C29.1884 17.2477 29.5321 16.6227 29.7821 15.9352C30.0425 15.2477 30.2352 14.5967 30.3602 13.9821L33.1571 0.857086H35.2977L32.5165 13.9821ZM49.8134 15.9352C49.6259 16.7894 49.2821 17.5654 48.7821 18.2633C48.2821 18.9508 47.6779 19.5446 46.9696 20.0446C46.2717 20.5446 45.5113 20.93 44.6884 21.2008C43.8654 21.4717 43.0373 21.6071 42.204 21.6071C41.0477 21.6071 40.0373 21.3935 39.1727 20.9665C38.3186 20.5394 37.6988 19.9092 37.3134 19.0758L36.8602 21.2477H35.0321L36.3446 15.0446H38.1727C38.0269 15.7425 38.0477 16.3831 38.2352 16.9665C38.4331 17.5394 38.7352 18.0342 39.1415 18.4508C39.5581 18.8675 40.0634 19.1956 40.6571 19.4352C41.2613 19.6644 41.9071 19.779 42.5946 19.779C43.1884 19.779 43.7613 19.6956 44.3134 19.529C44.8654 19.3519 45.3654 19.1071 45.8134 18.7946C46.2613 18.4717 46.6467 18.081 46.9696 17.6227C47.2925 17.1644 47.5165 16.6435 47.6415 16.0602C47.7977 15.404 47.7769 14.8415 47.579 14.3727C47.3915 13.904 47.0894 13.5029 46.6727 13.1696C46.2561 12.8363 45.7665 12.555 45.204 12.3258C44.6519 12.0863 44.0894 11.8519 43.5165 11.6227C42.829 11.3623 42.1467 11.0915 41.4696 10.8102C40.8029 10.5185 40.2196 10.154 39.7196 9.71646C39.2196 9.27896 38.855 8.74771 38.6259 8.12271C38.4071 7.48729 38.3967 6.70084 38.5946 5.76334C38.7821 4.93 39.1206 4.19042 39.6102 3.54459C40.0998 2.88834 40.6779 2.33625 41.3446 1.88834C42.0217 1.44042 42.7613 1.10188 43.5634 0.872711C44.3654 0.633128 45.1727 0.513336 45.9852 0.513336C46.9644 0.513336 47.829 0.716461 48.579 1.12271C49.3394 1.52896 49.8706 2.14875 50.1727 2.98209L50.6259 0.857086H52.5009L51.2665 6.68521H49.3759C49.5009 6.07063 49.4904 5.49771 49.3446 4.96646C49.2092 4.42479 48.9644 3.96646 48.6102 3.59146C48.2665 3.20604 47.8342 2.90396 47.3134 2.68521C46.7925 2.45604 46.2196 2.34146 45.5946 2.34146C45.0425 2.34146 44.5061 2.40396 43.9852 2.52896C43.4644 2.65396 42.9852 2.85709 42.5477 3.13834C42.1102 3.40917 41.73 3.76334 41.4071 4.20084C41.0842 4.63834 40.8602 5.15917 40.7352 5.76334C40.6311 6.29459 40.6727 6.74771 40.8602 7.12271C41.0477 7.49771 41.3342 7.83104 41.7196 8.12271C42.105 8.40396 42.5634 8.66438 43.0946 8.90396C43.6363 9.13313 44.1936 9.3675 44.7665 9.60709C45.4644 9.87792 46.1623 10.18 46.8602 10.5133C47.5581 10.8467 48.1571 11.2477 48.6571 11.7165C49.1571 12.1852 49.5269 12.7633 49.7665 13.4508C50.0165 14.1279 50.0321 14.956 49.8134 15.9352ZM65.9071 21.2477H63.7665L65.7509 11.8102H57.0165L55.0321 21.2477H52.8915L57.204 0.857086H59.3602L57.4071 9.98209H66.1415L68.0946 0.857086H70.2352L65.9071 21.2477ZM81.2352 21.2477H72.5009L72.8915 19.4196H76.1884L79.7352 2.68521H76.4384L76.829 0.857086H85.5634L85.1727 2.68521H81.8759L78.329 19.4196H81.6259L81.2352 21.2477ZM103.47 15.0133C103.22 16.0133 102.886 16.9196 102.47 17.7321C102.053 18.5446 101.543 19.2373 100.938 19.8102C100.345 20.3831 99.6467 20.8258 98.8446 21.1383C98.0529 21.4508 97.1415 21.6071 96.1102 21.6071C94.6831 21.6071 93.4748 21.3154 92.4852 20.7321C91.4956 20.1383 90.6831 19.3519 90.0477 18.3727C89.4227 17.3831 88.9696 16.2581 88.6884 14.9977C88.4175 13.7269 88.2821 12.4092 88.2821 11.0446C88.2821 9.68 88.4175 8.36229 88.6884 7.09146C88.9696 5.82063 89.4175 4.70084 90.0321 3.73209C90.6571 2.76334 91.4488 1.98729 92.4071 1.40396C93.3654 0.810211 94.5373 0.513336 95.9227 0.513336C96.3706 0.513336 96.8238 0.570628 97.2821 0.685211C97.7404 0.799795 98.1675 0.976878 98.5634 1.21646C98.9592 1.44563 99.3029 1.73209 99.5946 2.07584C99.8967 2.41959 100.11 2.81542 100.235 3.26334V0.857086H103.157V8.57584H100.235C100.235 7.94042 100.157 7.31542 100.001 6.70084C99.8446 6.07584 99.5946 5.52375 99.2509 5.04459C98.9071 4.56542 98.4748 4.17479 97.954 3.87271C97.4331 3.57063 96.8186 3.41959 96.1102 3.41959C95.1936 3.41959 94.4436 3.64354 93.8602 4.09146C93.2769 4.53938 92.8081 5.12792 92.454 5.85709C92.0998 6.58625 91.8498 7.40396 91.704 8.31021C91.5686 9.21646 91.5009 10.1279 91.5009 11.0446C91.5009 11.9613 91.5686 12.8779 91.704 13.7946C91.8498 14.7113 92.0946 15.5342 92.4384 16.2633C92.7821 16.9821 93.2509 17.5654 93.8446 18.0133C94.4384 18.4613 95.1936 18.6852 96.1102 18.6852C97.4331 18.6852 98.4488 18.2633 99.1571 17.4196C99.8759 16.5758 100.449 15.4404 100.876 14.0133L103.47 15.0133ZM118.282 21.2477H108.501V18.3415H111.72V3.77896H108.501V0.857086H118.282V3.77896H114.954V18.3415H118.282V21.2477ZM138.063 8.29459H135.173V3.77896H132.423V18.3415H135.657V21.2477H125.97V18.3415H129.188V3.77896H126.407V8.29459H123.532V0.857086H138.063V8.29459ZM155.876 3.77896H154.407L149.891 12.9352V18.3415H153.157V21.2477H143.407V18.3415H146.657V12.9352L142.157 3.77896H140.688V0.857086H147.11V3.77896H145.704L148.298 9.76334L150.86 3.77896H149.454V0.857086H155.876V3.77896Z" fill="black"/>
</svg>
